<svg data-v-423bf9ae="" xmlns="http://www.w3.org/2000/svg" viewBox="0 0 679.1712954195236 60" class="font"><!----><!----><!----><g data-v-423bf9ae="" id="490a9749-c914-4ad4-ad66-b10f595fbcaa" fill="white" transform="matrix(6.54307587140309,0,0,6.54307587140309,-2.7480826248041694,-53.78408588696031)"><path d="M6.86 17.02L6.86 17.02Q6.31 17.22 5.71 17.30L5.71 17.30L5.71 17.30Q5.10 17.39 4.26 17.39L4.26 17.39L4.26 17.39Q2.77 17.39 1.95 16.97L1.95 16.97L1.95 16.97Q1.13 16.55 0.78 15.56L0.78 15.56L0.78 15.56Q0.42 14.57 0.42 12.81L0.42 12.81L0.42 12.81Q0.42 11.03 0.80 10.05L0.80 10.05L0.80 10.05Q1.18 9.07 2.06 8.65L2.06 8.65L2.06 8.65Q2.94 8.22 4.54 8.22L4.54 8.22L4.54 8.22Q5.14 8.22 5.84 8.33L5.84 8.33L5.84 8.33Q6.55 8.44 6.86 8.58L6.86 8.58L6.51 10.79L6.51 10.79Q6.10 10.68 5.59 10.61L5.59 10.61L5.59 10.61Q5.08 10.53 4.75 10.53L4.75 10.53L4.75 10.53Q3.99 10.53 3.71 10.74L3.71 10.74L3.71 10.74Q3.43 10.95 3.43 11.51L3.43 11.51L3.43 14.90L3.43 14.90Q4.06 15.01 4.54 15.01L4.54 15.01L4.54 15.01Q5.11 15.01 5.68 14.92L5.68 14.92L5.68 14.92Q6.24 14.83 6.65 14.67L6.65 14.67L6.86 17.02ZM15.61 17.18L12.57 17.18L11.38 14.64L10.64 14.64L10.64 17.18L7.84 17.18L7.84 8.43L11.90 8.43L11.90 8.43Q13.69 8.43 14.48 9.18L14.48 9.18L14.48 9.18Q15.26 9.94 15.26 11.66L15.26 11.66L15.26 11.66Q15.26 13.47 14.18 14.15L14.18 14.15L15.61 17.18ZM10.64 10.74L10.64 12.61L11.77 12.61L11.77 12.61Q12.08 12.61 12.20 12.49L12.20 12.49L12.20 12.49Q12.32 12.36 12.32 12.03L12.32 12.03L12.32 11.33L12.32 11.33Q12.32 10.99 12.20 10.86L12.20 10.86L12.20 10.86Q12.08 10.74 11.77 10.74L11.77 10.74L10.64 10.74ZM21 8.43L23.94 8.43L21.35 14.38L21.35 17.18L18.55 17.18L18.55 14.38L15.96 8.43L18.90 8.43L19.95 11.34L21 8.43ZM27.51 15.06L27.51 17.18L24.71 17.18L24.71 8.43L28.70 8.43L28.70 8.43Q30.49 8.43 31.28 9.18L31.28 9.18L31.28 9.18Q32.06 9.94 32.06 11.66L32.06 11.66L32.06 11.66Q32.06 13.40 31.29 14.23L31.29 14.23L31.29 14.23Q30.52 15.06 28.91 15.06L28.91 15.06L27.51 15.06ZM27.51 13.03L28.57 13.03L28.57 13.03Q28.88 13.03 29.00 12.91L29.00 12.91L29.00 12.91Q29.12 12.78 29.12 12.45L29.12 12.45L29.12 11.33L29.12 11.33Q29.12 10.99 29.00 10.86L29.00 10.86L29.00 10.86Q28.88 10.74 28.57 10.74L28.57 10.74L27.51 10.74L27.51 13.03ZM37.10 10.74L37.10 17.18L34.30 17.18L34.30 10.74L32.34 10.74L32.34 8.43L39.06 8.43L39.06 10.74L37.10 10.74ZM39.55 12.81L39.55 12.81Q39.55 11.05 39.94 10.06L39.94 10.06L39.94 10.06Q40.33 9.07 41.24 8.65L41.24 8.65L41.24 8.65Q42.14 8.22 43.75 8.22L43.75 8.22L43.75 8.22Q45.36 8.22 46.26 8.65L46.26 8.65L46.26 8.65Q47.17 9.07 47.56 10.06L47.56 10.06L47.56 10.06Q47.95 11.05 47.95 12.81L47.95 12.81L47.95 12.81Q47.95 14.57 47.56 15.55L47.56 15.55L47.56 15.55Q47.17 16.53 46.26 16.96L46.26 16.96L46.26 16.96Q45.36 17.39 43.75 17.39L43.75 17.39L43.75 17.39Q42.14 17.39 41.24 16.96L41.24 16.96L41.24 16.96Q40.33 16.53 39.94 15.55L39.94 15.55L39.94 15.55Q39.55 14.57 39.55 12.81L39.55 12.81ZM42.56 14.99L43.83 14.99L43.83 14.99Q44.46 14.99 44.70 14.83L44.70 14.83L44.70 14.83Q44.94 14.67 44.94 14.25L44.94 14.25L44.94 10.61L43.65 10.61L43.65 10.61Q43.04 10.61 42.80 10.77L42.80 10.77L42.80 10.77Q42.56 10.93 42.56 11.35L42.56 11.35L42.56 14.99ZM52.92 10.74L52.92 17.18L50.12 17.18L50.12 10.74L48.16 10.74L48.16 8.43L54.88 8.43L54.88 10.74L52.92 10.74ZM63.42 17.18L60.38 17.18L59.19 14.64L58.45 14.64L58.45 17.18L55.65 17.18L55.65 8.43L59.71 8.43L59.71 8.43Q61.50 8.43 62.29 9.18L62.29 9.18L62.29 9.18Q63.07 9.94 63.07 11.66L63.07 11.66L63.07 11.66Q63.07 13.47 61.99 14.15L61.99 14.15L63.42 17.18ZM58.45 10.74L58.45 12.61L59.58 12.61L59.58 12.61Q59.89 12.61 60.01 12.49L60.01 12.49L60.01 12.49Q60.13 12.36 60.13 12.03L60.13 12.03L60.13 11.33L60.13 11.33Q60.13 10.99 60.01 10.86L60.01 10.86L60.01 10.86Q59.89 10.74 59.58 10.74L59.58 10.74L58.45 10.74ZM69.80 17.18L69.45 15.79L66.92 15.79L66.57 17.18L63.77 17.18L66.01 8.43L70.36 8.43L72.60 17.18L69.80 17.18ZM67.45 13.76L68.92 13.76L68.25 11.12L68.12 11.12L67.45 13.76ZM79.53 17.02L79.53 17.02Q78.99 17.22 78.38 17.30L78.38 17.30L78.38 17.30Q77.77 17.39 76.93 17.39L76.93 17.39L76.93 17.39Q75.45 17.39 74.63 16.97L74.63 16.97L74.63 16.97Q73.81 16.55 73.45 15.56L73.45 15.56L73.45 15.56Q73.09 14.57 73.09 12.81L73.09 12.81L73.09 12.81Q73.09 11.03 73.47 10.05L73.47 10.05L73.47 10.05Q73.85 9.07 74.73 8.65L74.73 8.65L74.73 8.65Q75.61 8.22 77.21 8.22L77.21 8.22L77.21 8.22Q77.81 8.22 78.52 8.33L78.52 8.33L78.52 8.33Q79.23 8.44 79.53 8.58L79.53 8.58L79.18 10.79L79.18 10.79Q78.78 10.68 78.27 10.61L78.27 10.61L78.27 10.61Q77.76 10.53 77.42 10.53L77.42 10.53L77.42 10.53Q76.66 10.53 76.38 10.74L76.38 10.74L76.38 10.74Q76.10 10.95 76.10 11.51L76.10 11.51L76.10 14.90L76.10 14.90Q76.73 15.01 77.21 15.01L77.21 15.01L77.21 15.01Q77.78 15.01 78.35 14.92L78.35 14.92L78.35 14.92Q78.92 14.83 79.32 14.67L79.32 14.67L79.53 17.02ZM86.27 12.68L88.40 17.18L85.43 17.18L84.32 14.83L84.32 14.83Q83.97 14.11 83.97 13.71L83.97 13.71L83.31 13.71L83.31 17.18L80.51 17.18L80.51 8.43L83.31 8.43L83.31 11.66L83.97 11.66L83.97 11.66Q83.97 11.26 84.32 10.54L84.32 10.54L85.36 8.43L88.33 8.43L86.27 12.68ZM91.97 13.82L91.97 14.87L95.26 14.87L95.26 17.18L89.17 17.18L89.17 8.43L95.33 8.43L94.98 10.74L91.97 10.74L91.97 11.79L94.77 11.79L94.77 13.82L91.97 13.82ZM104.22 17.18L101.18 17.18L99.99 14.64L99.25 14.64L99.25 17.18L96.45 17.18L96.45 8.43L100.51 8.43L100.51 8.43Q102.30 8.43 103.08 9.18L103.08 9.18L103.08 9.18Q103.87 9.94 103.87 11.66L103.87 11.66L103.87 11.66Q103.87 13.47 102.79 14.15L102.79 14.15L104.22 17.18ZM99.25 10.74L99.25 12.61L100.38 12.61L100.38 12.61Q100.69 12.61 100.81 12.49L100.81 12.49L100.81 12.49Q100.93 12.36 100.93 12.03L100.93 12.03L100.93 11.33L100.93 11.33Q100.93 10.99 100.81 10.86L100.81 10.86L100.81 10.86Q100.69 10.74 100.38 10.74L100.38 10.74L99.25 10.74Z"></path></g><!----><!----></svg>